<svg xmlns="http://www.w3.org/2000/svg" xmlns:xlink="http://www.w3.org/1999/xlink" width="500" zoomAndPan="magnify" viewBox="0 0 375 374.999991" height="500" preserveAspectRatio="xMidYMid meet" version="1.0"><path fill="#d19ea3" d="M 372.039062 206.371094 C 370.058594 230.746094 362.355469 253.738281 347.152344 270.699219 C 280.347656 345.195312 206.226562 341.558594 135.464844 321.949219 C 109.578125 334.714844 66.863281 352.121094 39.875 362.710938 C 39.371094 363.488281 38.371094 363.820312 37.484375 363.445312 C 36.679688 363.105469 36.21875 362.285156 36.300781 361.453125 C 36.238281 360.867188 36.457031 360.277344 36.875 359.867188 C 46.273438 337.164062 56.734375 301.21875 66.339844 278.488281 C -0.0078125 214.332031 0.347656 108.375 79.941406 53.019531 C 135.039062 14.707031 218.089844 11.140625 277.46875 40.441406 C 305.824219 54.429688 332.441406 76.75 349.003906 104 C 365.21875 130.683594 374.984375 170.050781 372.039062 206.371094 Z M 372.039062 206.371094 " fill-opacity="1" fill-rule="evenodd"/><path fill="#eebbc4" d="M 196.707031 262.328125 C 174.578125 251.78125 146.300781 238.542969 124.71875 220.492188 C 103.277344 202.558594 88.460938 179.851562 93.554688 150.160156 C 95.574219 138.402344 100.75 125.753906 109.722656 117.574219 C 126.886719 101.925781 155.890625 103.800781 173.019531 118.863281 C 180.789062 125.695312 189.242188 140.070312 192.253906 149.703125 L 192.347656 149.941406 C 192.410156 150.082031 192.496094 150.210938 192.589844 150.332031 L 192.6875 150.453125 L 192.902344 150.644531 C 193.019531 150.734375 193.148438 150.820312 193.289062 150.886719 L 193.4375 150.949219 L 193.730469 151.035156 L 194.019531 151.070312 L 194.304688 151.0625 L 194.644531 151 L 194.941406 150.886719 C 195.082031 150.820312 195.21875 150.734375 195.339844 150.644531 L 195.453125 150.542969 L 195.644531 150.332031 C 195.734375 150.210938 195.820312 150.082031 195.882812 149.941406 L 195.976562 149.703125 C 198.988281 140.054688 210.023438 125.695312 217.800781 118.863281 C 234.929688 103.800781 263.933594 101.925781 281.097656 117.574219 C 290.070312 125.753906 295.246094 138.402344 297.265625 150.160156 C 302.359375 179.859375 288.183594 202.582031 267.375 220.511719 C 246.445312 238.558594 218.8125 251.796875 196.707031 262.328125 Z M 196.707031 262.328125 " fill-opacity="1" fill-rule="evenodd"/><path fill="#efecd2" d="M 135.691406 317.972656 L 135.78125 317.992188 C 205.425781 337.40625 278.476562 341.441406 344.246094 268.089844 C 358.902344 251.738281 366.246094 229.542969 368.152344 206.046875 C 371.03125 170.550781 361.511719 132.082031 345.671875 106.015625 C 329.492188 79.386719 303.457031 57.59375 275.746094 43.921875 C 217.558594 15.222656 136.15625 18.667969 82.160156 56.21875 C 4.308594 110.359375 4.464844 214.238281 69.980469 276.597656 L 70.179688 276.816406 L 70.238281 276.894531 C 70.351562 277.050781 70.429688 277.210938 70.492188 277.382812 L 70.570312 277.6875 L 70.589844 277.871094 C 70.605469 278.054688 70.597656 278.242188 70.550781 278.425781 L 70.5 278.609375 L 70.429688 278.792969 C 61.1875 300.261719 51.109375 334.515625 41.9375 357.699219 C 69.152344 346.96875 109.742188 330.332031 134.394531 318.121094 L 134.667969 318.007812 L 134.953125 317.945312 L 135.292969 317.921875 L 135.585938 317.953125 Z M 195.871094 266.25 L 195.890625 266.253906 C 196.125 266.363281 196.367188 266.417969 196.609375 266.433594 L 196.820312 266.433594 C 197.0625 266.417969 197.300781 266.363281 197.535156 266.253906 L 197.558594 266.25 C 220.074219 255.511719 248.464844 241.964844 269.925781 223.46875 C 291.777344 204.628906 306.464844 180.695312 301.105469 149.511719 C 298.945312 136.929688 293.324219 123.449219 283.726562 114.703125 C 265.152344 97.769531 233.765625 99.648438 215.234375 115.945312 C 208.246094 122.089844 198.8125 134.03125 194.199219 143.71875 C 190.144531 134.023438 182.59375 122.09375 175.601562 115.945312 C 157.066406 99.648438 125.683594 97.769531 107.105469 114.703125 C 97.515625 123.449219 91.890625 136.929688 89.726562 149.511719 C 84.371094 180.703125 99.707031 204.644531 122.222656 223.488281 C 144.328125 241.972656 173.367188 255.519531 195.871094 266.25 Z M 195.871094 266.25 " fill-opacity="1" fill-rule="evenodd"/><path fill="#b0ad88" d="M 297.71875 153.175781 C 288.871094 160.660156 280.105469 168.226562 271.394531 175.882812 C 249.34375 195.238281 227.621094 215.296875 207.160156 236.324219 C 200.527344 243.144531 194.132812 250.667969 187.464844 257.925781 C 188.699219 258.515625 189.910156 259.105469 191.113281 259.671875 C 197.472656 252.71875 203.609375 245.558594 209.953125 239.039062 C 230.34375 218.082031 251.996094 198.09375 273.960938 178.808594 C 281.976562 171.773438 290.042969 164.789062 298.171875 157.894531 C 298.078125 156.335938 297.929688 154.761719 297.71875 153.175781 Z M 291.199219 131.308594 C 282.261719 138.878906 273.328125 146.460938 264.660156 154.328125 C 234.632812 181.558594 206.367188 210.878906 178.449219 240.25 C 175.59375 243.257812 172.765625 246.261719 169.894531 249.222656 C 171.105469 249.847656 172.320312 250.464844 173.515625 251.074219 C 176.109375 248.386719 178.675781 245.660156 181.269531 242.9375 C 209.117188 213.644531 237.316406 184.386719 267.269531 157.222656 C 274.433594 150.722656 281.769531 144.421875 289.140625 138.15625 L 289.058594 138.246094 C 264.34375 162.734375 240.351562 187.824219 217.628906 214.183594 C 207.453125 225.992188 197.472656 238.054688 187.59375 250.097656 C 186.046875 251.980469 184.503906 253.867188 182.964844 255.757812 C 184.175781 256.347656 185.378906 256.921875 186.5625 257.503906 C 187.902344 255.859375 189.25 254.214844 190.597656 252.570312 C 200.457031 240.550781 210.421875 228.507812 220.570312 216.726562 C 243.230469 190.449219 267.148438 165.429688 291.792969 141.011719 C 292.59375 140.21875 293.414062 139.425781 294.257812 138.617188 C 293.402344 136.121094 292.382812 133.667969 291.199219 131.308594 Z M 298.25 159.304688 C 275.808594 182.140625 254.703125 206.167969 233.992188 230.578125 C 225.121094 241.039062 220.859375 246.007812 214.730469 253.589844 C 217.59375 252.160156 220.484375 250.683594 223.390625 249.152344 C 227.140625 244.636719 231.011719 240.101562 236.957031 233.09375 C 256.753906 209.761719 276.910156 186.78125 298.242188 164.867188 C 298.328125 163.046875 298.328125 161.191406 298.25 159.304688 Z M 275.539062 113.347656 C 261.097656 126.445312 247.0625 139.8125 233.207031 153.59375 C 208.273438 178.378906 184.246094 204.027344 159.765625 229.25 C 156.855469 232.25 153.863281 235.46875 150.75 238.648438 C 151.890625 239.328125 153.035156 240.003906 154.179688 240.667969 C 157.066406 237.722656 159.84375 234.757812 162.558594 231.964844 C 187.023438 206.753906 211.03125 181.128906 235.957031 156.355469 C 248.054688 144.328125 260.289062 132.613281 272.8125 121.117188 C 271.039062 122.910156 269.289062 124.703125 267.589844 126.496094 C 243.691406 151.75 220.257812 177.578125 198.152344 204.417969 C 186.785156 218.222656 175.414062 232.164062 164.613281 246.453125 C 165.777344 247.078125 166.945312 247.6875 168.101562 248.289062 C 178.753906 234.226562 189.960938 220.492188 201.15625 206.890625 C 223.207031 180.113281 246.574219 154.351562 270.417969 129.167969 C 273.96875 125.417969 277.71875 121.683594 281.480469 117.921875 C 281.351562 117.808594 281.226562 117.6875 281.105469 117.574219 C 279.359375 115.992188 277.496094 114.582031 275.539062 113.347656 Z M 293.65625 186.054688 C 273.96875 203.480469 254.546875 221.164062 235.992188 240.179688 C 234.609375 241.597656 233.109375 243.144531 231.519531 244.78125 C 235.851562 242.371094 240.175781 239.847656 244.40625 237.203125 C 258.914062 222.667969 273.902344 208.875 289.105469 195.308594 C 290.851562 192.320312 292.375 189.242188 293.65625 186.054688 Z M 250.300781 106.679688 C 248.410156 106.707031 246.519531 106.851562 244.625 107.089844 C 236.75 115.582031 228.699219 123.925781 220.894531 132.480469 C 197.289062 158.371094 175.140625 185.378906 155.195312 214.183594 C 150.808594 220.519531 146.433594 226.878906 142.054688 233.21875 C 143.140625 233.929688 144.238281 234.628906 145.335938 235.324219 C 149.6875 229.011719 154.03125 222.703125 158.398438 216.402344 C 178.25 187.738281 200.277344 160.863281 223.773438 135.101562 C 232.503906 125.53125 241.535156 116.234375 250.300781 106.679688 Z M 243.128906 107.296875 C 240.34375 107.734375 237.59375 108.386719 234.914062 109.261719 C 224.015625 118.90625 213.640625 129.339844 203.660156 139.183594 C 201.761719 141.054688 199.859375 142.933594 197.96875 144.8125 C 197.132812 146.527344 196.457031 148.171875 195.976562 149.703125 L 195.882812 149.941406 C 195.820312 150.082031 195.734375 150.210938 195.644531 150.332031 L 195.453125 150.542969 L 195.339844 150.644531 C 195.21875 150.734375 195.082031 150.820312 194.941406 150.886719 L 194.644531 151 L 194.304688 151.0625 L 194.019531 151.070312 L 193.730469 151.035156 L 193.4375 150.949219 L 193.289062 150.886719 C 193.148438 150.820312 193.019531 150.734375 192.902344 150.644531 L 192.6875 150.453125 L 192.589844 150.332031 C 192.558594 150.296875 192.53125 150.261719 192.503906 150.21875 C 172.929688 169.660156 153.535156 189.355469 134.910156 209.691406 C 131.652344 213.246094 128.433594 217.03125 125.195312 220.894531 C 126.1875 221.71875 127.191406 222.53125 128.214844 223.332031 C 131.410156 219.546875 134.578125 215.828125 137.789062 212.328125 C 159.894531 188.1875 183.097656 164.945312 206.386719 141.960938 C 218.03125 130.472656 230.195312 118.183594 243.128906 107.296875 Z M 187.675781 138.972656 C 169.765625 158.296875 152.070312 177.789062 135.890625 198.761719 C 131.039062 205.039062 126.3125 211.417969 121.59375 217.796875 C 122.5625 218.65625 123.550781 219.507812 124.546875 220.34375 C 129.3125 213.90625 134.074219 207.472656 138.964844 201.136719 C 154.777344 180.652344 172.035156 161.59375 189.511719 142.714844 C 188.945312 141.488281 188.328125 140.230469 187.675781 138.972656 Z M 183.890625 132.371094 C 179.945312 135.6875 176.019531 139.027344 172.105469 142.386719 C 150.921875 160.59375 130.035156 179.171875 109.515625 198.125 C 108.523438 199.039062 107.433594 200.09375 106.25 201.25 C 107.019531 202.296875 107.816406 203.332031 108.636719 204.351562 C 109.90625 203.097656 111.089844 201.964844 112.152344 200.980469 C 132.636719 182.054688 153.496094 163.515625 174.636719 145.335938 C 178.378906 142.117188 182.140625 138.929688 185.914062 135.746094 C 185.265625 134.617188 184.585938 133.484375 183.890625 132.371094 Z M 173.542969 119.332031 C 167.738281 125.242188 161.792969 130.890625 156.550781 136.398438 C 140.808594 152.917969 124.9375 169.285156 110.332031 186.832031 C 107.78125 189.902344 105.25 192.992188 102.734375 196.089844 C 103.449219 197.238281 104.199219 198.371094 104.980469 199.492188 C 107.746094 196.089844 110.515625 192.695312 113.320312 189.328125 C 127.871094 171.851562 143.683594 155.546875 159.371094 139.089844 C 164.59375 133.613281 170.488281 127.976562 176.257812 122.089844 C 175.351562 121.082031 174.445312 120.160156 173.542969 119.332031 Z M 164.578125 112.980469 C 161.304688 115.5625 158.085938 118.125 155.082031 120.515625 C 136.746094 135.058594 118.289062 149.566406 101.0625 165.429688 C 98.507812 167.773438 96.015625 170.242188 93.535156 172.765625 C 93.808594 174.292969 94.144531 175.804688 94.53125 177.285156 C 97.558594 174.195312 100.585938 171.15625 103.699219 168.292969 C 120.855469 152.5 139.25 138.050781 157.5 123.570312 C 160.859375 120.90625 164.472656 118.019531 168.144531 115.136719 C 166.988281 114.363281 165.796875 113.648438 164.578125 112.980469 Z M 146.5625 107.140625 C 128.886719 125.414062 110.785156 143.308594 94.207031 162.585938 C 93.710938 163.160156 93.171875 163.785156 92.613281 164.449219 C 92.691406 166.308594 92.847656 168.128906 93.085938 169.921875 C 94.589844 168.136719 95.984375 166.492188 97.15625 165.125 C 114.257812 145.234375 132.96875 126.828125 151.175781 107.964844 C 149.644531 107.617188 148.109375 107.347656 146.5625 107.140625 Z M 138.179688 106.695312 C 135.902344 106.757812 133.636719 106.96875 131.402344 107.347656 C 119.367188 117.6875 107.792969 128.496094 96.277344 139.394531 C 95.460938 141.8125 94.789062 144.257812 94.25 146.683594 C 108.625 133.039062 123.003906 119.472656 138.179688 106.695312 Z M 138.179688 106.695312 " fill-opacity="1" fill-rule="evenodd"/></svg>