<svg xmlns="http://www.w3.org/2000/svg" xmlns:xlink="http://www.w3.org/1999/xlink" zoomAndPan="magnify" viewBox="0 0 375 374.999991" preserveAspectRatio="xMidYMid meet" version="1.0"><path fill="#ac4c79" d="M 47.3125 45.628906 C 48.328125 29.15625 52.601562 21.996094 64.871094 16.242188 C 78.074219 10.050781 98.890625 12.929688 123.382812 24.339844 C 133.933594 29.253906 135.003906 29.351562 153.496094 27.171875 C 178.070312 24.273438 209.714844 24.28125 232.398438 27.203125 C 249.558594 29.410156 250.679688 29.296875 261.257812 24.367188 C 296.023438 8.167969 323.476562 9.234375 333.417969 27.152344 C 338.382812 36.09375 339.300781 59.308594 335.457031 78.453125 C 333.328125 89.066406 333.554688 90.394531 338.6875 97.363281 C 374.84375 146.367188 348.792969 225.800781 286.839844 255.445312 C 282.101562 257.714844 278.105469 259.121094 274.851562 260.261719 C 264.851562 263.773438 261.820312 264.839844 265.496094 281.003906 C 267.265625 288.773438 269.394531 308.101562 270.234375 323.957031 C 271.75 352.609375 271.730469 352.8125 266.265625 358.660156 C 258.824219 366.613281 248.105469 366.746094 240.847656 358.976562 C 236.109375 353.914062 235.652344 351.515625 235.652344 331.972656 C 235.652344 303.089844 232.210938 283.894531 224.078125 267.441406 C 214.410156 247.863281 221.574219 240.566406 243.691406 236.1875 C 274.429688 230.101562 298.441406 212.65625 311.820312 186.667969 C 324.542969 161.964844 326.460938 127.832031 303.457031 107.070312 C 296.910156 99.921875 296.460938 93.449219 301.128906 73.914062 C 302.871094 66.613281 304.335938 57.199219 304.378906 52.984375 C 304.441406 46.332031 303.789062 45.324219 299.34375 45.324219 C 296.53125 45.324219 285.789062 49.082031 275.480469 53.679688 L 259.019531 61.023438 C 257.527344 61.691406 255.847656 61.945312 254.199219 61.769531 C 212.34375 57.355469 172.578125 57.285156 130.519531 61.792969 C 128.863281 61.96875 127.175781 61.714844 125.683594 61.042969 L 109.230469 53.703125 C 98.921875 49.097656 88.179688 45.332031 85.367188 45.332031 C 78.871094 45.332031 78.773438 49.746094 84.695312 75.957031 C 88.3125 91.964844 90.746094 95.535156 80.289062 108.335938 C 64.613281 127.523438 60.699219 151.351562 69.105469 176.386719 C 79.695312 207.9375 105.640625 229.246094 142.121094 236.355469 C 164.109375 240.644531 169.855469 246.234375 161.457031 269.429688 C 154.847656 287.679688 150.667969 292.382812 141.0625 292.382812 C 128.136719 292.382812 120.039062 282.089844 124.496094 271.3125 C 126.457031 266.566406 125.871094 266.058594 113.769531 261.996094 C 76.8125 249.601562 48.546875 221.820312 35.621094 185.195312 C 25.636719 156.886719 30.027344 120.035156 46.050781 97.761719 C 51.507812 90.183594 51.59375 89.535156 49.046875 75.019531 C 47.609375 66.804688 46.828125 53.574219 47.3125 45.628906 Z M 47.3125 45.628906 " fill-opacity="1" fill-rule="nonzero"/><path fill="#ac4c79" d="M 34.410156 252.722656 C 29.085938 245.375 18.289062 243.386719 10.304688 248.289062 C 2.316406 253.1875 0.15625 263.113281 5.480469 270.460938 C 9.417969 275.882812 14.121094 280.339844 18.109375 284.011719 C 18.84375 284.691406 19.5625 285.347656 20.261719 285.980469 C 23.605469 289.042969 26.558594 291.734375 29.527344 294.945312 C 36.09375 302.03125 42.636719 311.574219 46.363281 328.6875 C 48.019531 336.3125 53.976562 340.414062 57.277344 342.214844 C 60.859375 344.160156 64.765625 345.300781 67.988281 346.050781 C 74.578125 347.582031 82.566406 348.371094 90.148438 348.835938 C 98.476562 349.34375 107.496094 349.503906 115.5625 349.554688 C 115.570312 358.375 123.347656 365.535156 132.945312 365.535156 C 142.542969 365.535156 150.328125 358.375 150.328125 349.546875 L 150.328125 333.5625 C 150.328125 324.730469 142.542969 317.574219 132.945312 317.574219 C 131.308594 317.574219 129.53125 317.582031 127.65625 317.589844 C 117.453125 317.617188 104.160156 317.652344 92.445312 316.9375 C 86.796875 316.59375 82.15625 316.105469 78.75 315.515625 C 73.511719 296.585938 65.042969 283.984375 56 274.230469 C 52.003906 269.917969 47.871094 266.144531 44.507812 263.074219 C 43.878906 262.503906 43.273438 261.953125 42.703125 261.425781 C 38.816406 257.828125 36.277344 255.289062 34.410156 252.722656 Z M 34.410156 252.722656 " fill-opacity="1" fill-rule="nonzero"/></svg>