<svg xmlns="http://www.w3.org/2000/svg" xmlns:xlink="http://www.w3.org/1999/xlink" width="370" zoomAndPan="magnify" viewBox="0 0 277.5 74.999997" height="100" preserveAspectRatio="xMidYMid meet" version="1.0"><defs><g/></defs><g fill="#e2a2ad" fill-opacity="1"><g transform="translate(10.331759, 52.674429)"><g><path d="M 25.640625 -17.09375 C 25.972656 -17.59375 26.398438 -17.769531 26.921875 -17.625 C 27.441406 -17.476562 27.878906 -17.195312 28.234375 -16.78125 C 28.585938 -16.363281 28.660156 -15.945312 28.453125 -15.53125 C 28.117188 -14.820312 27.628906 -13.832031 26.984375 -12.5625 C 26.335938 -11.300781 25.523438 -9.953125 24.546875 -8.515625 C 23.566406 -7.078125 22.378906 -5.710938 20.984375 -4.421875 C 19.597656 -3.140625 18 -2.09375 16.1875 -1.28125 C 14.375 -0.46875 12.304688 -0.0625 9.984375 -0.0625 C 7.234375 -0.0625 5.054688 -0.644531 3.453125 -1.8125 C 1.859375 -2.976562 0.769531 -4.453125 0.1875 -6.234375 C -0.394531 -8.023438 -0.5625 -9.894531 -0.3125 -11.84375 C -0.0625 -13.800781 0.519531 -15.550781 1.4375 -17.09375 L 1.6875 -17.46875 C 2.8125 -18.96875 3.921875 -20.597656 5.015625 -22.359375 C 6.117188 -24.128906 7.253906 -25.796875 8.421875 -27.359375 C 9.585938 -28.921875 10.789062 -30.207031 12.03125 -31.21875 C 13.28125 -32.238281 14.570312 -32.75 15.90625 -32.75 C 17.863281 -32.75 19.3125 -32.289062 20.25 -31.375 C 21.1875 -30.46875 21.632812 -29.515625 21.59375 -28.515625 C 21.59375 -28.015625 21.375 -27.597656 20.9375 -27.265625 C 20.5 -26.929688 19.976562 -26.628906 19.375 -26.359375 C 18.769531 -26.085938 18.238281 -25.753906 17.78125 -25.359375 C 17.320312 -24.960938 17.09375 -24.453125 17.09375 -23.828125 C 17.09375 -23.453125 17.382812 -22.703125 17.96875 -21.578125 C 18.550781 -20.460938 19.175781 -19.207031 19.84375 -17.8125 C 20.507812 -16.414062 20.96875 -15.070312 21.21875 -13.78125 C 22.164062 -13.820312 22.984375 -14.15625 23.671875 -14.78125 C 24.359375 -15.40625 25.015625 -16.175781 25.640625 -17.09375 Z M 7.734375 -12.921875 C 9.109375 -12.921875 10.171875 -13.351562 10.921875 -14.21875 C 11.671875 -15.09375 12.046875 -16.175781 12.046875 -17.46875 C 12.046875 -18.21875 11.929688 -18.988281 11.703125 -19.78125 C 11.472656 -20.570312 11.128906 -21.382812 10.671875 -22.21875 C 10.253906 -23.039062 9.753906 -23.039062 9.171875 -22.21875 C 8.378906 -21.050781 7.535156 -19.875 6.640625 -18.6875 C 5.742188 -17.5 4.945312 -16.445312 4.25 -15.53125 C 4.25 -14.78125 4.566406 -14.15625 5.203125 -13.65625 C 5.847656 -13.164062 6.691406 -12.921875 7.734375 -12.921875 Z M 7.734375 -12.921875 "/></g></g></g><g fill="#e2a2ad" fill-opacity="1"><g transform="translate(34.475757, 52.674429)"><g><path d="M 6.296875 0 C 3.972656 0 2.257812 -0.71875 1.15625 -2.15625 C 0.0507812 -3.59375 -0.5 -5.460938 -0.5 -7.765625 C -0.5 -10.078125 -0.0390625 -12.5625 0.875 -15.21875 C 1.414062 -16.800781 2.019531 -18.503906 2.6875 -20.328125 C 3.351562 -22.160156 4.078125 -24.160156 4.859375 -26.328125 C 3.953125 -26.328125 3.257812 -26.566406 2.78125 -27.046875 C 2.300781 -27.523438 1.988281 -28.085938 1.84375 -28.734375 C 1.695312 -29.378906 1.695312 -29.941406 1.84375 -30.421875 C 1.988281 -30.898438 2.25 -31.140625 2.625 -31.140625 C 4.445312 -31.140625 5.878906 -31.644531 6.921875 -32.65625 C 7.960938 -33.675781 8.691406 -34.75 9.109375 -35.875 C 9.859375 -37.707031 10.585938 -38.863281 11.296875 -39.34375 C 12.003906 -39.820312 12.75 -40.0625 13.53125 -40.0625 C 14.695312 -40.0625 15.425781 -39.570312 15.71875 -38.59375 C 16.007812 -37.613281 15.675781 -36.144531 14.71875 -34.1875 C 14.257812 -33.1875 14.007812 -32.425781 13.96875 -31.90625 C 13.925781 -31.394531 14.195312 -31.140625 14.78125 -31.140625 L 18.03125 -31.140625 C 18.445312 -31.140625 18.71875 -30.847656 18.84375 -30.265625 C 18.96875 -29.679688 18.957031 -29.015625 18.8125 -28.265625 C 18.664062 -27.515625 18.394531 -26.847656 18 -26.265625 C 17.601562 -25.679688 17.09375 -25.390625 16.46875 -25.390625 C 14.550781 -25.390625 13.132812 -25.316406 12.21875 -25.171875 C 11.3125 -25.023438 10.671875 -24.660156 10.296875 -24.078125 C 9.921875 -23.492188 9.523438 -22.5 9.109375 -21.09375 C 8.441406 -18.925781 8.535156 -17.195312 9.390625 -15.90625 C 10.242188 -14.613281 11.582031 -13.96875 13.40625 -13.96875 C 14.65625 -13.96875 15.769531 -14.25 16.75 -14.8125 C 17.726562 -15.375 18.53125 -16.132812 19.15625 -17.09375 C 19.488281 -17.59375 19.914062 -17.769531 20.4375 -17.625 C 20.957031 -17.476562 21.390625 -17.195312 21.734375 -16.78125 C 22.085938 -16.363281 22.164062 -15.945312 21.96875 -15.53125 C 21.59375 -14.820312 21.09375 -13.84375 20.46875 -12.59375 C 19.84375 -11.351562 19.09375 -10.003906 18.21875 -8.546875 C 17.34375 -7.085938 16.320312 -5.710938 15.15625 -4.421875 C 13.988281 -3.140625 12.664062 -2.082031 11.1875 -1.25 C 9.71875 -0.414062 8.085938 0 6.296875 0 Z M 6.296875 0 "/></g></g></g><g fill="#e2a2ad" fill-opacity="1"><g transform="translate(52.193833, 52.674429)"><g><path d="M 32.625 -17.09375 C 32.957031 -17.59375 33.394531 -17.769531 33.9375 -17.625 C 34.476562 -17.476562 34.925781 -17.195312 35.28125 -16.78125 C 35.632812 -16.363281 35.6875 -15.945312 35.4375 -15.53125 C 35.019531 -14.863281 34.519531 -13.894531 33.9375 -12.625 C 33.351562 -11.363281 32.65625 -10.015625 31.84375 -8.578125 C 31.039062 -7.140625 30.097656 -5.765625 29.015625 -4.453125 C 27.929688 -3.148438 26.710938 -2.082031 25.359375 -1.25 C 24.003906 -0.414062 22.476562 0 20.78125 0 C 17.195312 0 15.40625 -2.265625 15.40625 -6.796875 C 15.40625 -7.585938 15.46875 -8.441406 15.59375 -9.359375 C 14.925781 -7.898438 14.113281 -6.453125 13.15625 -5.015625 C 12.207031 -3.585938 11.109375 -2.40625 9.859375 -1.46875 C 8.609375 -0.53125 7.171875 -0.0625 5.546875 -0.0625 C 3.890625 -0.0625 2.5625 -0.664062 1.5625 -1.875 C 0.5625 -3.082031 0.0625 -4.953125 0.0625 -7.484375 C 0.0625 -8.441406 0.132812 -9.769531 0.28125 -11.46875 C 0.425781 -13.175781 0.8125 -15.050781 1.4375 -17.09375 C 2.894531 -21.664062 4.359375 -25.15625 5.828125 -27.5625 C 7.304688 -29.976562 8.921875 -31.1875 10.671875 -31.1875 C 11.960938 -31.1875 12.609375 -30.359375 12.609375 -28.703125 C 12.609375 -27.367188 12.367188 -26.015625 11.890625 -24.640625 C 11.410156 -23.265625 10.941406 -21.921875 10.484375 -20.609375 C 10.023438 -19.304688 9.796875 -18.03125 9.796875 -16.78125 C 9.796875 -15.90625 9.972656 -15.21875 10.328125 -14.71875 C 10.679688 -14.21875 11.378906 -13.96875 12.421875 -13.96875 C 13.535156 -13.96875 14.550781 -14.3125 15.46875 -15 C 16.382812 -15.6875 17.113281 -16.800781 17.65625 -18.34375 L 17.71875 -18.59375 C 19.007812 -22.664062 20.316406 -25.78125 21.640625 -27.9375 C 22.972656 -30.101562 24.429688 -31.1875 26.015625 -31.1875 C 26.640625 -31.1875 27.117188 -31 27.453125 -30.625 C 27.785156 -30.257812 27.953125 -29.617188 27.953125 -28.703125 C 27.953125 -27.535156 27.710938 -26.273438 27.234375 -24.921875 C 26.753906 -23.566406 26.285156 -22.222656 25.828125 -20.890625 C 25.367188 -19.566406 25.140625 -18.382812 25.140625 -17.34375 C 25.140625 -16.175781 25.460938 -15.3125 26.109375 -14.75 C 26.753906 -14.1875 27.492188 -13.90625 28.328125 -13.90625 C 29.285156 -13.90625 30.082031 -14.207031 30.71875 -14.8125 C 31.363281 -15.414062 32 -16.175781 32.625 -17.09375 Z M 32.625 -17.09375 "/></g></g></g><g fill="#e2a2ad" fill-opacity="1"><g transform="translate(83.387626, 52.674429)"><g><path d="M 7.296875 0 C 4.847656 0 3.050781 -0.847656 1.90625 -2.546875 C 0.757812 -4.253906 0.1875 -6.359375 0.1875 -8.859375 C 0.1875 -11.191406 0.519531 -13.644531 1.1875 -16.21875 C 1.851562 -18.800781 2.859375 -21.222656 4.203125 -23.484375 C 5.554688 -25.753906 7.242188 -27.601562 9.265625 -29.03125 C 11.285156 -30.46875 13.625 -31.1875 16.28125 -31.1875 C 17.53125 -31.1875 18.5 -31.039062 19.1875 -30.75 C 19.875 -30.46875 20.394531 -30.128906 20.75 -29.734375 C 21.101562 -29.335938 21.40625 -28.984375 21.65625 -28.671875 C 21.90625 -28.359375 22.234375 -28.203125 22.640625 -28.203125 C 22.972656 -28.203125 23.242188 -28.578125 23.453125 -29.328125 C 23.660156 -30.078125 23.972656 -31.1875 24.390625 -32.65625 C 24.804688 -34.132812 25.453125 -35.9375 26.328125 -38.0625 C 27.117188 -39.96875 27.898438 -41.410156 28.671875 -42.390625 C 29.441406 -43.367188 30.175781 -44.023438 30.875 -44.359375 C 31.582031 -44.691406 32.25 -44.859375 32.875 -44.859375 C 33.957031 -44.859375 34.675781 -44.328125 35.03125 -43.265625 C 35.382812 -42.203125 35.144531 -40.78125 34.3125 -39 L 27.265625 -20.96875 C 26.222656 -18.675781 25.835938 -16.925781 26.109375 -15.71875 C 26.378906 -14.507812 27.203125 -13.90625 28.578125 -13.90625 C 29.660156 -13.90625 30.59375 -14.1875 31.375 -14.75 C 32.164062 -15.3125 32.875 -16.09375 33.5 -17.09375 C 33.832031 -17.59375 34.257812 -17.769531 34.78125 -17.625 C 35.300781 -17.476562 35.738281 -17.195312 36.09375 -16.78125 C 36.445312 -16.363281 36.519531 -15.945312 36.3125 -15.53125 C 35.5625 -14.082031 34.757812 -12.472656 33.90625 -10.703125 C 33.050781 -8.929688 32.101562 -7.234375 31.0625 -5.609375 C 30.03125 -3.992188 28.847656 -2.65625 27.515625 -1.59375 C 26.179688 -0.53125 24.640625 0 22.890625 0 C 20.898438 0 19.425781 -0.867188 18.46875 -2.609375 C 17.507812 -4.359375 17.195312 -6.523438 17.53125 -9.109375 L 17.28125 -9.109375 C 15.988281 -6.566406 14.476562 -4.410156 12.75 -2.640625 C 11.03125 -0.878906 9.210938 0 7.296875 0 Z M 12.984375 -12.921875 C 14.015625 -12.921875 14.925781 -13.226562 15.71875 -13.84375 C 16.507812 -14.46875 17.132812 -15.226562 17.59375 -16.125 C 18.050781 -17.019531 18.28125 -17.90625 18.28125 -18.78125 C 18.28125 -19.695312 18.007812 -20.476562 17.46875 -21.125 C 16.925781 -21.769531 16.050781 -22.09375 14.84375 -22.09375 C 13.851562 -22.09375 12.972656 -21.800781 12.203125 -21.21875 C 11.429688 -20.632812 10.828125 -19.894531 10.390625 -19 C 9.953125 -18.101562 9.734375 -17.195312 9.734375 -16.28125 C 9.734375 -15.363281 9.984375 -14.570312 10.484375 -13.90625 C 10.984375 -13.25 11.816406 -12.921875 12.984375 -12.921875 Z M 12.984375 -12.921875 "/></g></g></g><g fill="#e2a2ad" fill-opacity="1"><g transform="translate(115.454846, 52.674429)"><g><path d="M 12.546875 -33.75 C 11.046875 -33.75 9.753906 -34.070312 8.671875 -34.71875 C 7.585938 -35.363281 7.046875 -36.519531 7.046875 -38.1875 C 7.046875 -40.382812 7.660156 -41.890625 8.890625 -42.703125 C 10.117188 -43.515625 11.585938 -43.921875 13.296875 -43.921875 C 14.867188 -43.921875 16.207031 -43.566406 17.3125 -42.859375 C 18.414062 -42.148438 18.882812 -40.820312 18.71875 -38.875 C 18.550781 -36.957031 17.882812 -35.625 16.71875 -34.875 C 15.550781 -34.125 14.160156 -33.75 12.546875 -33.75 Z M 5.609375 0 C 3.535156 0 2.0625 -0.753906 1.1875 -2.265625 C 0.3125 -3.785156 -0.125 -5.628906 -0.125 -7.796875 C -0.125 -9.253906 0.0195312 -10.789062 0.3125 -12.40625 C 0.601562 -14.03125 0.976562 -15.59375 1.4375 -17.09375 C 2.894531 -21.625 4.304688 -25.101562 5.671875 -27.53125 C 7.046875 -29.96875 8.628906 -31.1875 10.421875 -31.1875 C 11.835938 -31.1875 12.546875 -30.253906 12.546875 -28.390625 C 12.546875 -27.140625 12.304688 -25.859375 11.828125 -24.546875 C 11.347656 -23.234375 10.878906 -21.941406 10.421875 -20.671875 C 9.960938 -19.410156 9.734375 -18.21875 9.734375 -17.09375 C 9.734375 -16.050781 9.992188 -15.269531 10.515625 -14.75 C 11.035156 -14.226562 11.710938 -13.96875 12.546875 -13.96875 C 13.492188 -13.96875 14.289062 -14.257812 14.9375 -14.84375 C 15.582031 -15.425781 16.21875 -16.175781 16.84375 -17.09375 C 17.175781 -17.59375 17.601562 -17.78125 18.125 -17.65625 C 18.644531 -17.53125 19.082031 -17.25 19.4375 -16.8125 C 19.789062 -16.375 19.863281 -15.96875 19.65625 -15.59375 C 19.238281 -14.925781 18.75 -13.96875 18.1875 -12.71875 C 17.625 -11.476562 16.945312 -10.128906 16.15625 -8.671875 C 15.363281 -7.210938 14.457031 -5.828125 13.4375 -4.515625 C 12.425781 -3.210938 11.273438 -2.132812 9.984375 -1.28125 C 8.691406 -0.425781 7.234375 0 5.609375 0 Z M 5.609375 0 "/></g></g></g><g fill="#e2a2ad" fill-opacity="1"><g transform="translate(130.802196, 52.674429)"><g><path d="M 31.140625 -17.09375 C 31.378906 -17.46875 31.769531 -17.601562 32.3125 -17.5 C 32.851562 -17.394531 33.320312 -17.164062 33.71875 -16.8125 C 34.113281 -16.457031 34.1875 -16.03125 33.9375 -15.53125 C 33.351562 -14.28125 32.59375 -12.988281 31.65625 -11.65625 C 30.726562 -10.332031 29.566406 -9.222656 28.171875 -8.328125 C 26.773438 -7.429688 25.054688 -6.984375 23.015625 -6.984375 L 22.265625 -6.984375 C 20.734375 -4.867188 18.894531 -3.175781 16.75 -1.90625 C 14.601562 -0.632812 12.367188 0 10.046875 0 C 7.253906 0 4.941406 -0.929688 3.109375 -2.796875 C 1.285156 -4.671875 0.375 -7.234375 0.375 -10.484375 C 0.375 -12.804688 0.800781 -15.1875 1.65625 -17.625 C 2.507812 -20.0625 3.703125 -22.304688 5.234375 -24.359375 C 6.773438 -26.421875 8.582031 -28.070312 10.65625 -29.3125 C 12.738281 -30.5625 15.03125 -31.1875 17.53125 -31.1875 C 19.238281 -31.1875 20.773438 -30.84375 22.140625 -30.15625 C 23.515625 -29.476562 24.609375 -28.347656 25.421875 -26.765625 C 26.234375 -25.179688 26.640625 -23.082031 26.640625 -20.46875 C 26.640625 -18.257812 26.328125 -16.113281 25.703125 -14.03125 L 26.140625 -14.03125 C 27.054688 -14.03125 27.929688 -14.269531 28.765625 -14.75 C 29.597656 -15.226562 30.390625 -16.007812 31.140625 -17.09375 Z M 13.59375 -12.921875 C 14.632812 -12.921875 15.550781 -13.226562 16.34375 -13.84375 C 17.132812 -14.46875 17.757812 -15.226562 18.21875 -16.125 C 18.675781 -17.019531 18.90625 -17.90625 18.90625 -18.78125 C 18.90625 -19.695312 18.632812 -20.476562 18.09375 -21.125 C 17.550781 -21.769531 16.675781 -22.09375 15.46875 -22.09375 C 14.46875 -22.09375 13.582031 -21.800781 12.8125 -21.21875 C 12.050781 -20.632812 11.453125 -19.894531 11.015625 -19 C 10.578125 -18.101562 10.359375 -17.195312 10.359375 -16.28125 C 10.359375 -15.363281 10.609375 -14.570312 11.109375 -13.90625 C 11.609375 -13.25 12.4375 -12.921875 13.59375 -12.921875 Z M 13.59375 -12.921875 "/></g></g></g><g fill="#e2a2ad" fill-opacity="1"><g transform="translate(160.498697, 52.674429)"><g><path d="M 21.90625 -47.734375 C 23.894531 -47.734375 25.359375 -47.285156 26.296875 -46.390625 C 27.234375 -45.492188 27.753906 -44.398438 27.859375 -43.109375 C 27.960938 -41.816406 27.785156 -40.515625 27.328125 -39.203125 C 26.867188 -37.898438 26.210938 -36.800781 25.359375 -35.90625 C 24.503906 -35.007812 23.597656 -34.5625 22.640625 -34.5625 C 21.773438 -34.5625 21.34375 -34.875 21.34375 -35.5 C 21.34375 -37.5 20.570312 -38.5 19.03125 -38.5 C 17.695312 -38.5 16.539062 -37.800781 15.5625 -36.40625 C 14.582031 -35.007812 13.742188 -33.253906 13.046875 -31.140625 L 19.59375 -31.140625 C 20.007812 -31.140625 20.28125 -30.847656 20.40625 -30.265625 C 20.53125 -29.679688 20.519531 -29.015625 20.375 -28.265625 C 20.226562 -27.515625 19.957031 -26.847656 19.5625 -26.265625 C 19.164062 -25.679688 18.65625 -25.390625 18.03125 -25.390625 C 18.113281 -25.390625 17.507812 -25.453125 16.21875 -25.578125 C 14.925781 -25.703125 13.390625 -25.828125 11.609375 -25.953125 C 11.109375 -23.660156 10.703125 -21.367188 10.390625 -19.078125 C 10.078125 -16.796875 9.816406 -14.828125 9.609375 -13.171875 C 9.441406 -11.628906 9.296875 -10.085938 9.171875 -8.546875 C 9.046875 -7.003906 8.804688 -5.585938 8.453125 -4.296875 C 8.097656 -3.015625 7.523438 -1.976562 6.734375 -1.1875 C 5.941406 -0.394531 4.78125 0 3.25 0 C 1.332031 0 0.09375 -0.625 -0.46875 -1.875 C -1.03125 -3.125 -1.101562 -5.015625 -0.6875 -7.546875 C -0.269531 -10.085938 0.4375 -13.269531 1.4375 -17.09375 C 1.894531 -18.71875 2.351562 -20.304688 2.8125 -21.859375 C 3.269531 -23.421875 3.75 -24.929688 4.25 -26.390625 L 3.375 -26.390625 C 1.914062 -26.390625 0.9375 -26.628906 0.4375 -27.109375 C -0.0625 -27.585938 -0.257812 -28.140625 -0.15625 -28.765625 C -0.0507812 -29.390625 0.207031 -29.941406 0.625 -30.421875 C 1.039062 -30.898438 1.4375 -31.140625 1.8125 -31.140625 L 5.984375 -31.140625 C 7.316406 -34.460938 8.773438 -37.359375 10.359375 -39.828125 C 11.941406 -42.304688 13.6875 -44.242188 15.59375 -45.640625 C 17.507812 -47.035156 19.613281 -47.734375 21.90625 -47.734375 Z M 21.90625 -47.734375 "/></g></g></g><g fill="#e2a2ad" fill-opacity="1"><g transform="translate(176.65709, 52.674429)"><g><path d="M 12.546875 -35.125 C 11.210938 -35.125 10.066406 -35.4375 9.109375 -36.0625 C 8.148438 -36.6875 7.753906 -37.8125 7.921875 -39.4375 C 8.046875 -41.09375 8.609375 -42.210938 9.609375 -42.796875 C 10.609375 -43.378906 11.796875 -43.671875 13.171875 -43.671875 C 14.492188 -43.671875 15.625 -43.378906 16.5625 -42.796875 C 17.5 -42.210938 17.882812 -41.09375 17.71875 -39.4375 C 17.550781 -37.8125 16.988281 -36.6875 16.03125 -36.0625 C 15.070312 -35.4375 13.910156 -35.125 12.546875 -35.125 Z M 25.203125 -35.125 C 23.867188 -35.125 22.734375 -35.4375 21.796875 -36.0625 C 20.867188 -36.6875 20.488281 -37.8125 20.65625 -39.4375 C 20.78125 -41.09375 21.335938 -42.210938 22.328125 -42.796875 C 23.328125 -43.378906 24.515625 -43.671875 25.890625 -43.671875 C 27.222656 -43.671875 28.347656 -43.378906 29.265625 -42.796875 C 30.179688 -42.210938 30.578125 -41.09375 30.453125 -39.4375 C 30.285156 -37.8125 29.710938 -36.6875 28.734375 -36.0625 C 27.753906 -35.4375 26.578125 -35.125 25.203125 -35.125 Z M 6.609375 0 C 4.492188 0 2.894531 -0.867188 1.8125 -2.609375 C 0.726562 -4.359375 0.1875 -6.628906 0.1875 -9.421875 C 0.1875 -11.171875 0.40625 -13.03125 0.84375 -15 C 1.28125 -16.976562 1.925781 -18.921875 2.78125 -20.828125 C 3.632812 -22.742188 4.703125 -24.484375 5.984375 -26.046875 C 7.273438 -27.609375 8.773438 -28.851562 10.484375 -29.78125 C 12.191406 -30.71875 14.125 -31.1875 16.28125 -31.1875 C 17.53125 -31.1875 18.5 -31.070312 19.1875 -30.84375 C 19.875 -30.625 20.394531 -30.347656 20.75 -30.015625 C 21.101562 -29.679688 21.40625 -29.398438 21.65625 -29.171875 C 21.90625 -28.941406 22.234375 -28.828125 22.640625 -28.828125 C 23.347656 -28.828125 23.921875 -29.023438 24.359375 -29.421875 C 24.796875 -29.816406 25.285156 -30.207031 25.828125 -30.59375 C 26.367188 -30.988281 27.117188 -31.1875 28.078125 -31.1875 C 28.910156 -31.1875 29.484375 -30.976562 29.796875 -30.5625 C 30.109375 -30.15625 30.265625 -29.597656 30.265625 -28.890625 C 30.265625 -27.722656 29.941406 -26.566406 29.296875 -25.421875 C 28.648438 -24.273438 27.972656 -22.789062 27.265625 -20.96875 C 26.222656 -18.675781 25.835938 -16.925781 26.109375 -15.71875 C 26.378906 -14.507812 27.203125 -13.90625 28.578125 -13.90625 C 29.660156 -13.90625 30.59375 -14.1875 31.375 -14.75 C 32.164062 -15.3125 32.875 -16.09375 33.5 -17.09375 C 33.832031 -17.59375 34.257812 -17.769531 34.78125 -17.625 C 35.300781 -17.476562 35.738281 -17.195312 36.09375 -16.78125 C 36.445312 -16.363281 36.519531 -15.945312 36.3125 -15.53125 C 35.5625 -14.082031 34.757812 -12.472656 33.90625 -10.703125 C 33.050781 -8.929688 32.101562 -7.234375 31.0625 -5.609375 C 30.03125 -3.992188 28.847656 -2.65625 27.515625 -1.59375 C 26.179688 -0.53125 24.640625 0 22.890625 0 C 20.734375 0 19.207031 -0.867188 18.3125 -2.609375 C 17.414062 -4.359375 17.15625 -6.523438 17.53125 -9.109375 L 17.28125 -9.109375 C 16.03125 -6.566406 14.488281 -4.410156 12.65625 -2.640625 C 10.832031 -0.878906 8.816406 0 6.609375 0 Z M 12.859375 -12.921875 C 13.929688 -12.921875 14.875 -13.226562 15.6875 -13.84375 C 16.5 -14.46875 17.132812 -15.226562 17.59375 -16.125 C 18.050781 -17.019531 18.28125 -17.90625 18.28125 -18.78125 C 18.28125 -19.820312 17.988281 -20.632812 17.40625 -21.21875 C 16.820312 -21.800781 16.03125 -22.09375 15.03125 -22.09375 C 13.945312 -22.09375 13.007812 -21.800781 12.21875 -21.21875 C 11.4375 -20.632812 10.828125 -19.894531 10.390625 -19 C 9.953125 -18.101562 9.734375 -17.195312 9.734375 -16.28125 C 9.734375 -15.238281 10.015625 -14.414062 10.578125 -13.8125 C 11.140625 -13.21875 11.898438 -12.921875 12.859375 -12.921875 Z M 12.859375 -12.921875 "/></g></g></g><g fill="#e2a2ad" fill-opacity="1"><g transform="translate(208.724317, 52.674429)"><g><path d="M 26.078125 -17.09375 C 26.410156 -17.59375 26.847656 -17.769531 27.390625 -17.625 C 27.929688 -17.476562 28.378906 -17.195312 28.734375 -16.78125 C 29.085938 -16.363281 29.140625 -15.945312 28.890625 -15.53125 C 28.472656 -14.863281 27.972656 -13.894531 27.390625 -12.625 C 26.804688 -11.363281 26.109375 -10.015625 25.296875 -8.578125 C 24.484375 -7.140625 23.535156 -5.765625 22.453125 -4.453125 C 21.378906 -3.148438 20.164062 -2.082031 18.8125 -1.25 C 17.457031 -0.414062 15.925781 0 14.21875 0 C 12.519531 0 11.171875 -0.320312 10.171875 -0.96875 C 9.171875 -1.613281 8.453125 -2.441406 8.015625 -3.453125 C 7.578125 -4.472656 7.359375 -5.503906 7.359375 -6.546875 C 7.359375 -8.003906 7.578125 -9.441406 8.015625 -10.859375 C 8.453125 -12.273438 8.960938 -13.625 9.546875 -14.90625 C 10.128906 -16.195312 10.640625 -17.382812 11.078125 -18.46875 C 11.515625 -19.550781 11.734375 -20.46875 11.734375 -21.21875 C 11.734375 -21.550781 11.492188 -22.035156 11.015625 -22.671875 C 10.535156 -23.316406 9.671875 -23.867188 8.421875 -24.328125 C 8.046875 -23.492188 7.597656 -22.523438 7.078125 -21.421875 C 6.554688 -20.328125 6.035156 -19.25 5.515625 -18.1875 C 4.992188 -17.125 4.570312 -16.238281 4.25 -15.53125 C 4 -14.988281 3.59375 -14.789062 3.03125 -14.9375 C 2.46875 -15.082031 2 -15.382812 1.625 -15.84375 C 1.25 -16.300781 1.1875 -16.71875 1.4375 -17.09375 C 2.019531 -17.925781 2.664062 -19.140625 3.375 -20.734375 C 4.082031 -22.335938 4.703125 -23.847656 5.234375 -25.265625 C 4.617188 -25.472656 4.125 -25.828125 3.75 -26.328125 C 3.375 -26.828125 3.1875 -27.640625 3.1875 -28.765625 C 3.1875 -29.640625 3.410156 -30.5 3.859375 -31.34375 C 4.316406 -32.195312 4.960938 -32.914062 5.796875 -33.5 C 6.628906 -34.082031 7.609375 -34.375 8.734375 -34.375 C 10.691406 -34.375 12.570312 -34 14.375 -33.25 C 16.1875 -32.5 17.675781 -31.550781 18.84375 -30.40625 C 20.007812 -29.269531 20.59375 -28.140625 20.59375 -27.015625 C 20.59375 -25.847656 20.375 -24.742188 19.9375 -23.703125 C 19.5 -22.671875 19.050781 -21.613281 18.59375 -20.53125 C 18.132812 -19.445312 17.90625 -18.257812 17.90625 -16.96875 C 17.90625 -16.09375 18.195312 -15.363281 18.78125 -14.78125 C 19.363281 -14.195312 20.363281 -13.90625 21.78125 -13.90625 C 22.726562 -13.90625 23.523438 -14.207031 24.171875 -14.8125 C 24.816406 -15.414062 25.453125 -16.175781 26.078125 -17.09375 Z M 26.078125 -17.09375 "/></g></g></g><g fill="#e2a2ad" fill-opacity="1"><g transform="translate(233.367415, 52.674429)"><g><path d="M 32.9375 -17.09375 C 33.1875 -17.46875 33.582031 -17.601562 34.125 -17.5 C 34.664062 -17.394531 35.132812 -17.164062 35.53125 -16.8125 C 35.925781 -16.457031 36 -16.03125 35.75 -15.53125 C 34.832031 -13.625 33.945312 -11.753906 33.09375 -9.921875 C 32.238281 -8.085938 31.332031 -6.421875 30.375 -4.921875 C 29.425781 -3.429688 28.367188 -2.238281 27.203125 -1.34375 C 26.035156 -0.445312 24.703125 0 23.203125 0 C 22.296875 0 21.570312 -0.457031 21.03125 -1.375 C 19.695312 2.90625 18.269531 6.335938 16.75 8.921875 C 15.226562 11.503906 13.53125 13.375 11.65625 14.53125 C 9.789062 15.695312 7.671875 16.28125 5.296875 16.28125 C 2.015625 16.28125 -0.523438 15.414062 -2.328125 13.6875 C -4.140625 11.96875 -5.046875 9.609375 -5.046875 6.609375 C -5.046875 5.035156 -4.816406 3.675781 -4.359375 2.53125 C -3.910156 1.382812 -3.394531 0.476562 -2.8125 -0.1875 C -2.226562 -0.851562 -1.707031 -1.28125 -1.25 -1.46875 C -0.789062 -1.65625 -0.539062 -1.582031 -0.5 -1.25 C -0.332031 0.289062 0.363281 1.539062 1.59375 2.5 C 2.820312 3.457031 4.472656 3.957031 6.546875 4 C 8.003906 4 9.378906 3.644531 10.671875 2.9375 C 11.960938 2.226562 13.113281 1.300781 14.125 0.15625 C 15.144531 -0.988281 15.945312 -2.242188 16.53125 -3.609375 C 17.113281 -4.984375 17.40625 -6.359375 17.40625 -7.734375 C 17.40625 -8.273438 17.195312 -8.535156 16.78125 -8.515625 C 16.363281 -8.492188 16.007812 -8.171875 15.71875 -7.546875 C 14.882812 -5.390625 13.664062 -3.6875 12.0625 -2.4375 C 10.46875 -1.1875 8.878906 -0.5625 7.296875 -0.5625 C 5.140625 -0.5625 3.414062 -1.359375 2.125 -2.953125 C 0.832031 -4.554688 0.1875 -6.523438 0.1875 -8.859375 C 0.1875 -11.191406 0.519531 -13.644531 1.1875 -16.21875 C 1.851562 -18.800781 2.859375 -21.222656 4.203125 -23.484375 C 5.554688 -25.753906 7.242188 -27.601562 9.265625 -29.03125 C 11.285156 -30.46875 13.625 -31.1875 16.28125 -31.1875 C 17.53125 -31.1875 18.5 -31.070312 19.1875 -30.84375 C 19.875 -30.625 20.394531 -30.347656 20.75 -30.015625 C 21.101562 -29.679688 21.40625 -29.398438 21.65625 -29.171875 C 21.90625 -28.941406 22.234375 -28.828125 22.640625 -28.828125 C 23.347656 -28.828125 23.921875 -29.023438 24.359375 -29.421875 C 24.796875 -29.816406 25.285156 -30.207031 25.828125 -30.59375 C 26.367188 -30.988281 27.117188 -31.1875 28.078125 -31.1875 C 28.910156 -31.1875 29.484375 -30.976562 29.796875 -30.5625 C 30.109375 -30.15625 30.265625 -29.597656 30.265625 -28.890625 C 30.265625 -28.140625 30.023438 -27.253906 29.546875 -26.234375 C 29.066406 -25.210938 28.441406 -23.898438 27.671875 -22.296875 C 26.898438 -20.703125 26.078125 -18.632812 25.203125 -16.09375 C 24.785156 -14.425781 24.785156 -13.269531 25.203125 -12.625 C 25.617188 -11.988281 26.179688 -11.671875 26.890625 -11.671875 C 27.847656 -11.671875 28.863281 -12.25 29.9375 -13.40625 C 31.019531 -14.570312 32.019531 -15.800781 32.9375 -17.09375 Z M 12.984375 -12.921875 C 14.015625 -12.921875 14.925781 -13.226562 15.71875 -13.84375 C 16.507812 -14.46875 17.132812 -15.226562 17.59375 -16.125 C 18.050781 -17.019531 18.28125 -17.90625 18.28125 -18.78125 C 18.28125 -19.695312 18.007812 -20.476562 17.46875 -21.125 C 16.925781 -21.769531 16.050781 -22.09375 14.84375 -22.09375 C 13.851562 -22.09375 12.972656 -21.800781 12.203125 -21.21875 C 11.429688 -20.632812 10.828125 -19.894531 10.390625 -19 C 9.953125 -18.101562 9.734375 -17.195312 9.734375 -16.28125 C 9.734375 -15.363281 9.984375 -14.570312 10.484375 -13.90625 C 10.984375 -13.25 11.816406 -12.921875 12.984375 -12.921875 Z M 12.984375 -12.921875 "/></g></g></g><g fill="#ffffff" fill-opacity="1"><g transform="translate(5.725579, 49.327844)"><g><path d="M 25.640625 -17.09375 C 25.972656 -17.59375 26.398438 -17.769531 26.921875 -17.625 C 27.441406 -17.476562 27.878906 -17.195312 28.234375 -16.78125 C 28.585938 -16.363281 28.660156 -15.945312 28.453125 -15.53125 C 28.117188 -14.820312 27.628906 -13.832031 26.984375 -12.5625 C 26.335938 -11.300781 25.523438 -9.953125 24.546875 -8.515625 C 23.566406 -7.078125 22.378906 -5.710938 20.984375 -4.421875 C 19.597656 -3.140625 18 -2.09375 16.1875 -1.28125 C 14.375 -0.46875 12.304688 -0.0625 9.984375 -0.0625 C 7.234375 -0.0625 5.054688 -0.644531 3.453125 -1.8125 C 1.859375 -2.976562 0.769531 -4.453125 0.1875 -6.234375 C -0.394531 -8.023438 -0.5625 -9.894531 -0.3125 -11.84375 C -0.0625 -13.800781 0.519531 -15.550781 1.4375 -17.09375 L 1.6875 -17.46875 C 2.8125 -18.96875 3.921875 -20.597656 5.015625 -22.359375 C 6.117188 -24.128906 7.253906 -25.796875 8.421875 -27.359375 C 9.585938 -28.921875 10.789062 -30.207031 12.03125 -31.21875 C 13.28125 -32.238281 14.570312 -32.75 15.90625 -32.75 C 17.863281 -32.75 19.3125 -32.289062 20.25 -31.375 C 21.1875 -30.46875 21.632812 -29.515625 21.59375 -28.515625 C 21.59375 -28.015625 21.375 -27.597656 20.9375 -27.265625 C 20.5 -26.929688 19.976562 -26.628906 19.375 -26.359375 C 18.769531 -26.085938 18.238281 -25.753906 17.78125 -25.359375 C 17.320312 -24.960938 17.09375 -24.453125 17.09375 -23.828125 C 17.09375 -23.453125 17.382812 -22.703125 17.96875 -21.578125 C 18.550781 -20.460938 19.175781 -19.207031 19.84375 -17.8125 C 20.507812 -16.414062 20.96875 -15.070312 21.21875 -13.78125 C 22.164062 -13.820312 22.984375 -14.15625 23.671875 -14.78125 C 24.359375 -15.40625 25.015625 -16.175781 25.640625 -17.09375 Z M 7.734375 -12.921875 C 9.109375 -12.921875 10.171875 -13.351562 10.921875 -14.21875 C 11.671875 -15.09375 12.046875 -16.175781 12.046875 -17.46875 C 12.046875 -18.21875 11.929688 -18.988281 11.703125 -19.78125 C 11.472656 -20.570312 11.128906 -21.382812 10.671875 -22.21875 C 10.253906 -23.039062 9.753906 -23.039062 9.171875 -22.21875 C 8.378906 -21.050781 7.535156 -19.875 6.640625 -18.6875 C 5.742188 -17.5 4.945312 -16.445312 4.25 -15.53125 C 4.25 -14.78125 4.566406 -14.15625 5.203125 -13.65625 C 5.847656 -13.164062 6.691406 -12.921875 7.734375 -12.921875 Z M 7.734375 -12.921875 "/></g></g></g><g fill="#ffffff" fill-opacity="1"><g transform="translate(29.869577, 49.327844)"><g><path d="M 6.296875 0 C 3.972656 0 2.257812 -0.71875 1.15625 -2.15625 C 0.0507812 -3.59375 -0.5 -5.460938 -0.5 -7.765625 C -0.5 -10.078125 -0.0390625 -12.5625 0.875 -15.21875 C 1.414062 -16.800781 2.019531 -18.503906 2.6875 -20.328125 C 3.351562 -22.160156 4.078125 -24.160156 4.859375 -26.328125 C 3.953125 -26.328125 3.257812 -26.566406 2.78125 -27.046875 C 2.300781 -27.523438 1.988281 -28.085938 1.84375 -28.734375 C 1.695312 -29.378906 1.695312 -29.941406 1.84375 -30.421875 C 1.988281 -30.898438 2.25 -31.140625 2.625 -31.140625 C 4.445312 -31.140625 5.878906 -31.644531 6.921875 -32.65625 C 7.960938 -33.675781 8.691406 -34.75 9.109375 -35.875 C 9.859375 -37.707031 10.585938 -38.863281 11.296875 -39.34375 C 12.003906 -39.820312 12.75 -40.0625 13.53125 -40.0625 C 14.695312 -40.0625 15.425781 -39.570312 15.71875 -38.59375 C 16.007812 -37.613281 15.675781 -36.144531 14.71875 -34.1875 C 14.257812 -33.1875 14.007812 -32.425781 13.96875 -31.90625 C 13.925781 -31.394531 14.195312 -31.140625 14.78125 -31.140625 L 18.03125 -31.140625 C 18.445312 -31.140625 18.71875 -30.847656 18.84375 -30.265625 C 18.96875 -29.679688 18.957031 -29.015625 18.8125 -28.265625 C 18.664062 -27.515625 18.394531 -26.847656 18 -26.265625 C 17.601562 -25.679688 17.09375 -25.390625 16.46875 -25.390625 C 14.550781 -25.390625 13.132812 -25.316406 12.21875 -25.171875 C 11.3125 -25.023438 10.671875 -24.660156 10.296875 -24.078125 C 9.921875 -23.492188 9.523438 -22.5 9.109375 -21.09375 C 8.441406 -18.925781 8.535156 -17.195312 9.390625 -15.90625 C 10.242188 -14.613281 11.582031 -13.96875 13.40625 -13.96875 C 14.65625 -13.96875 15.769531 -14.25 16.75 -14.8125 C 17.726562 -15.375 18.53125 -16.132812 19.15625 -17.09375 C 19.488281 -17.59375 19.914062 -17.769531 20.4375 -17.625 C 20.957031 -17.476562 21.390625 -17.195312 21.734375 -16.78125 C 22.085938 -16.363281 22.164062 -15.945312 21.96875 -15.53125 C 21.59375 -14.820312 21.09375 -13.84375 20.46875 -12.59375 C 19.84375 -11.351562 19.09375 -10.003906 18.21875 -8.546875 C 17.34375 -7.085938 16.320312 -5.710938 15.15625 -4.421875 C 13.988281 -3.140625 12.664062 -2.082031 11.1875 -1.25 C 9.71875 -0.414062 8.085938 0 6.296875 0 Z M 6.296875 0 "/></g></g></g><g fill="#ffffff" fill-opacity="1"><g transform="translate(47.587653, 49.327844)"><g><path d="M 32.625 -17.09375 C 32.957031 -17.59375 33.394531 -17.769531 33.9375 -17.625 C 34.476562 -17.476562 34.925781 -17.195312 35.28125 -16.78125 C 35.632812 -16.363281 35.6875 -15.945312 35.4375 -15.53125 C 35.019531 -14.863281 34.519531 -13.894531 33.9375 -12.625 C 33.351562 -11.363281 32.65625 -10.015625 31.84375 -8.578125 C 31.039062 -7.140625 30.097656 -5.765625 29.015625 -4.453125 C 27.929688 -3.148438 26.710938 -2.082031 25.359375 -1.25 C 24.003906 -0.414062 22.476562 0 20.78125 0 C 17.195312 0 15.40625 -2.265625 15.40625 -6.796875 C 15.40625 -7.585938 15.46875 -8.441406 15.59375 -9.359375 C 14.925781 -7.898438 14.113281 -6.453125 13.15625 -5.015625 C 12.207031 -3.585938 11.109375 -2.40625 9.859375 -1.46875 C 8.609375 -0.53125 7.171875 -0.0625 5.546875 -0.0625 C 3.890625 -0.0625 2.5625 -0.664062 1.5625 -1.875 C 0.5625 -3.082031 0.0625 -4.953125 0.0625 -7.484375 C 0.0625 -8.441406 0.132812 -9.769531 0.28125 -11.46875 C 0.425781 -13.175781 0.8125 -15.050781 1.4375 -17.09375 C 2.894531 -21.664062 4.359375 -25.15625 5.828125 -27.5625 C 7.304688 -29.976562 8.921875 -31.1875 10.671875 -31.1875 C 11.960938 -31.1875 12.609375 -30.359375 12.609375 -28.703125 C 12.609375 -27.367188 12.367188 -26.015625 11.890625 -24.640625 C 11.410156 -23.265625 10.941406 -21.921875 10.484375 -20.609375 C 10.023438 -19.304688 9.796875 -18.03125 9.796875 -16.78125 C 9.796875 -15.90625 9.972656 -15.21875 10.328125 -14.71875 C 10.679688 -14.21875 11.378906 -13.96875 12.421875 -13.96875 C 13.535156 -13.96875 14.550781 -14.3125 15.46875 -15 C 16.382812 -15.6875 17.113281 -16.800781 17.65625 -18.34375 L 17.71875 -18.59375 C 19.007812 -22.664062 20.316406 -25.78125 21.640625 -27.9375 C 22.972656 -30.101562 24.429688 -31.1875 26.015625 -31.1875 C 26.640625 -31.1875 27.117188 -31 27.453125 -30.625 C 27.785156 -30.257812 27.953125 -29.617188 27.953125 -28.703125 C 27.953125 -27.535156 27.710938 -26.273438 27.234375 -24.921875 C 26.753906 -23.566406 26.285156 -22.222656 25.828125 -20.890625 C 25.367188 -19.566406 25.140625 -18.382812 25.140625 -17.34375 C 25.140625 -16.175781 25.460938 -15.3125 26.109375 -14.75 C 26.753906 -14.1875 27.492188 -13.90625 28.328125 -13.90625 C 29.285156 -13.90625 30.082031 -14.207031 30.71875 -14.8125 C 31.363281 -15.414062 32 -16.175781 32.625 -17.09375 Z M 32.625 -17.09375 "/></g></g></g><g fill="#ffffff" fill-opacity="1"><g transform="translate(78.781446, 49.327844)"><g><path d="M 7.296875 0 C 4.847656 0 3.050781 -0.847656 1.90625 -2.546875 C 0.757812 -4.253906 0.1875 -6.359375 0.1875 -8.859375 C 0.1875 -11.191406 0.519531 -13.644531 1.1875 -16.21875 C 1.851562 -18.800781 2.859375 -21.222656 4.203125 -23.484375 C 5.554688 -25.753906 7.242188 -27.601562 9.265625 -29.03125 C 11.285156 -30.46875 13.625 -31.1875 16.28125 -31.1875 C 17.53125 -31.1875 18.5 -31.039062 19.1875 -30.75 C 19.875 -30.46875 20.394531 -30.128906 20.75 -29.734375 C 21.101562 -29.335938 21.40625 -28.984375 21.65625 -28.671875 C 21.90625 -28.359375 22.234375 -28.203125 22.640625 -28.203125 C 22.972656 -28.203125 23.242188 -28.578125 23.453125 -29.328125 C 23.660156 -30.078125 23.972656 -31.1875 24.390625 -32.65625 C 24.804688 -34.132812 25.453125 -35.9375 26.328125 -38.0625 C 27.117188 -39.96875 27.898438 -41.410156 28.671875 -42.390625 C 29.441406 -43.367188 30.175781 -44.023438 30.875 -44.359375 C 31.582031 -44.691406 32.25 -44.859375 32.875 -44.859375 C 33.957031 -44.859375 34.675781 -44.328125 35.03125 -43.265625 C 35.382812 -42.203125 35.144531 -40.78125 34.3125 -39 L 27.265625 -20.96875 C 26.222656 -18.675781 25.835938 -16.925781 26.109375 -15.71875 C 26.378906 -14.507812 27.203125 -13.90625 28.578125 -13.90625 C 29.660156 -13.90625 30.59375 -14.1875 31.375 -14.75 C 32.164062 -15.3125 32.875 -16.09375 33.5 -17.09375 C 33.832031 -17.59375 34.257812 -17.769531 34.78125 -17.625 C 35.300781 -17.476562 35.738281 -17.195312 36.09375 -16.78125 C 36.445312 -16.363281 36.519531 -15.945312 36.3125 -15.53125 C 35.5625 -14.082031 34.757812 -12.472656 33.90625 -10.703125 C 33.050781 -8.929688 32.101562 -7.234375 31.0625 -5.609375 C 30.03125 -3.992188 28.847656 -2.65625 27.515625 -1.59375 C 26.179688 -0.53125 24.640625 0 22.890625 0 C 20.898438 0 19.425781 -0.867188 18.46875 -2.609375 C 17.507812 -4.359375 17.195312 -6.523438 17.53125 -9.109375 L 17.28125 -9.109375 C 15.988281 -6.566406 14.476562 -4.410156 12.75 -2.640625 C 11.03125 -0.878906 9.210938 0 7.296875 0 Z M 12.984375 -12.921875 C 14.015625 -12.921875 14.925781 -13.226562 15.71875 -13.84375 C 16.507812 -14.46875 17.132812 -15.226562 17.59375 -16.125 C 18.050781 -17.019531 18.28125 -17.90625 18.28125 -18.78125 C 18.28125 -19.695312 18.007812 -20.476562 17.46875 -21.125 C 16.925781 -21.769531 16.050781 -22.09375 14.84375 -22.09375 C 13.851562 -22.09375 12.972656 -21.800781 12.203125 -21.21875 C 11.429688 -20.632812 10.828125 -19.894531 10.390625 -19 C 9.953125 -18.101562 9.734375 -17.195312 9.734375 -16.28125 C 9.734375 -15.363281 9.984375 -14.570312 10.484375 -13.90625 C 10.984375 -13.25 11.816406 -12.921875 12.984375 -12.921875 Z M 12.984375 -12.921875 "/></g></g></g><g fill="#ffffff" fill-opacity="1"><g transform="translate(110.848666, 49.327844)"><g><path d="M 12.546875 -33.75 C 11.046875 -33.75 9.753906 -34.070312 8.671875 -34.71875 C 7.585938 -35.363281 7.046875 -36.519531 7.046875 -38.1875 C 7.046875 -40.382812 7.660156 -41.890625 8.890625 -42.703125 C 10.117188 -43.515625 11.585938 -43.921875 13.296875 -43.921875 C 14.867188 -43.921875 16.207031 -43.566406 17.3125 -42.859375 C 18.414062 -42.148438 18.882812 -40.820312 18.71875 -38.875 C 18.550781 -36.957031 17.882812 -35.625 16.71875 -34.875 C 15.550781 -34.125 14.160156 -33.75 12.546875 -33.75 Z M 5.609375 0 C 3.535156 0 2.0625 -0.753906 1.1875 -2.265625 C 0.3125 -3.785156 -0.125 -5.628906 -0.125 -7.796875 C -0.125 -9.253906 0.0195312 -10.789062 0.3125 -12.40625 C 0.601562 -14.03125 0.976562 -15.59375 1.4375 -17.09375 C 2.894531 -21.625 4.304688 -25.101562 5.671875 -27.53125 C 7.046875 -29.96875 8.628906 -31.1875 10.421875 -31.1875 C 11.835938 -31.1875 12.546875 -30.253906 12.546875 -28.390625 C 12.546875 -27.140625 12.304688 -25.859375 11.828125 -24.546875 C 11.347656 -23.234375 10.878906 -21.941406 10.421875 -20.671875 C 9.960938 -19.410156 9.734375 -18.21875 9.734375 -17.09375 C 9.734375 -16.050781 9.992188 -15.269531 10.515625 -14.75 C 11.035156 -14.226562 11.710938 -13.96875 12.546875 -13.96875 C 13.492188 -13.96875 14.289062 -14.257812 14.9375 -14.84375 C 15.582031 -15.425781 16.21875 -16.175781 16.84375 -17.09375 C 17.175781 -17.59375 17.601562 -17.78125 18.125 -17.65625 C 18.644531 -17.53125 19.082031 -17.25 19.4375 -16.8125 C 19.789062 -16.375 19.863281 -15.96875 19.65625 -15.59375 C 19.238281 -14.925781 18.75 -13.96875 18.1875 -12.71875 C 17.625 -11.476562 16.945312 -10.128906 16.15625 -8.671875 C 15.363281 -7.210938 14.457031 -5.828125 13.4375 -4.515625 C 12.425781 -3.210938 11.273438 -2.132812 9.984375 -1.28125 C 8.691406 -0.425781 7.234375 0 5.609375 0 Z M 5.609375 0 "/></g></g></g><g fill="#ffffff" fill-opacity="1"><g transform="translate(126.196016, 49.327844)"><g><path d="M 31.140625 -17.09375 C 31.378906 -17.46875 31.769531 -17.601562 32.3125 -17.5 C 32.851562 -17.394531 33.320312 -17.164062 33.71875 -16.8125 C 34.113281 -16.457031 34.1875 -16.03125 33.9375 -15.53125 C 33.351562 -14.28125 32.59375 -12.988281 31.65625 -11.65625 C 30.726562 -10.332031 29.566406 -9.222656 28.171875 -8.328125 C 26.773438 -7.429688 25.054688 -6.984375 23.015625 -6.984375 L 22.265625 -6.984375 C 20.734375 -4.867188 18.894531 -3.175781 16.75 -1.90625 C 14.601562 -0.632812 12.367188 0 10.046875 0 C 7.253906 0 4.941406 -0.929688 3.109375 -2.796875 C 1.285156 -4.671875 0.375 -7.234375 0.375 -10.484375 C 0.375 -12.804688 0.800781 -15.1875 1.65625 -17.625 C 2.507812 -20.0625 3.703125 -22.304688 5.234375 -24.359375 C 6.773438 -26.421875 8.582031 -28.070312 10.65625 -29.3125 C 12.738281 -30.5625 15.03125 -31.1875 17.53125 -31.1875 C 19.238281 -31.1875 20.773438 -30.84375 22.140625 -30.15625 C 23.515625 -29.476562 24.609375 -28.347656 25.421875 -26.765625 C 26.234375 -25.179688 26.640625 -23.082031 26.640625 -20.46875 C 26.640625 -18.257812 26.328125 -16.113281 25.703125 -14.03125 L 26.140625 -14.03125 C 27.054688 -14.03125 27.929688 -14.269531 28.765625 -14.75 C 29.597656 -15.226562 30.390625 -16.007812 31.140625 -17.09375 Z M 13.59375 -12.921875 C 14.632812 -12.921875 15.550781 -13.226562 16.34375 -13.84375 C 17.132812 -14.46875 17.757812 -15.226562 18.21875 -16.125 C 18.675781 -17.019531 18.90625 -17.90625 18.90625 -18.78125 C 18.90625 -19.695312 18.632812 -20.476562 18.09375 -21.125 C 17.550781 -21.769531 16.675781 -22.09375 15.46875 -22.09375 C 14.46875 -22.09375 13.582031 -21.800781 12.8125 -21.21875 C 12.050781 -20.632812 11.453125 -19.894531 11.015625 -19 C 10.578125 -18.101562 10.359375 -17.195312 10.359375 -16.28125 C 10.359375 -15.363281 10.609375 -14.570312 11.109375 -13.90625 C 11.609375 -13.25 12.4375 -12.921875 13.59375 -12.921875 Z M 13.59375 -12.921875 "/></g></g></g><g fill="#ffffff" fill-opacity="1"><g transform="translate(155.892516, 49.327844)"><g><path d="M 21.90625 -47.734375 C 23.894531 -47.734375 25.359375 -47.285156 26.296875 -46.390625 C 27.234375 -45.492188 27.753906 -44.398438 27.859375 -43.109375 C 27.960938 -41.816406 27.785156 -40.515625 27.328125 -39.203125 C 26.867188 -37.898438 26.210938 -36.800781 25.359375 -35.90625 C 24.503906 -35.007812 23.597656 -34.5625 22.640625 -34.5625 C 21.773438 -34.5625 21.34375 -34.875 21.34375 -35.5 C 21.34375 -37.5 20.570312 -38.5 19.03125 -38.5 C 17.695312 -38.5 16.539062 -37.800781 15.5625 -36.40625 C 14.582031 -35.007812 13.742188 -33.253906 13.046875 -31.140625 L 19.59375 -31.140625 C 20.007812 -31.140625 20.28125 -30.847656 20.40625 -30.265625 C 20.53125 -29.679688 20.519531 -29.015625 20.375 -28.265625 C 20.226562 -27.515625 19.957031 -26.847656 19.5625 -26.265625 C 19.164062 -25.679688 18.65625 -25.390625 18.03125 -25.390625 C 18.113281 -25.390625 17.507812 -25.453125 16.21875 -25.578125 C 14.925781 -25.703125 13.390625 -25.828125 11.609375 -25.953125 C 11.109375 -23.660156 10.703125 -21.367188 10.390625 -19.078125 C 10.078125 -16.796875 9.816406 -14.828125 9.609375 -13.171875 C 9.441406 -11.628906 9.296875 -10.085938 9.171875 -8.546875 C 9.046875 -7.003906 8.804688 -5.585938 8.453125 -4.296875 C 8.097656 -3.015625 7.523438 -1.976562 6.734375 -1.1875 C 5.941406 -0.394531 4.78125 0 3.25 0 C 1.332031 0 0.09375 -0.625 -0.46875 -1.875 C -1.03125 -3.125 -1.101562 -5.015625 -0.6875 -7.546875 C -0.269531 -10.085938 0.4375 -13.269531 1.4375 -17.09375 C 1.894531 -18.71875 2.351562 -20.304688 2.8125 -21.859375 C 3.269531 -23.421875 3.75 -24.929688 4.25 -26.390625 L 3.375 -26.390625 C 1.914062 -26.390625 0.9375 -26.628906 0.4375 -27.109375 C -0.0625 -27.585938 -0.257812 -28.140625 -0.15625 -28.765625 C -0.0507812 -29.390625 0.207031 -29.941406 0.625 -30.421875 C 1.039062 -30.898438 1.4375 -31.140625 1.8125 -31.140625 L 5.984375 -31.140625 C 7.316406 -34.460938 8.773438 -37.359375 10.359375 -39.828125 C 11.941406 -42.304688 13.6875 -44.242188 15.59375 -45.640625 C 17.507812 -47.035156 19.613281 -47.734375 21.90625 -47.734375 Z M 21.90625 -47.734375 "/></g></g></g><g fill="#ffffff" fill-opacity="1"><g transform="translate(172.05091, 49.327844)"><g><path d="M 12.546875 -35.125 C 11.210938 -35.125 10.066406 -35.4375 9.109375 -36.0625 C 8.148438 -36.6875 7.753906 -37.8125 7.921875 -39.4375 C 8.046875 -41.09375 8.609375 -42.210938 9.609375 -42.796875 C 10.609375 -43.378906 11.796875 -43.671875 13.171875 -43.671875 C 14.492188 -43.671875 15.625 -43.378906 16.5625 -42.796875 C 17.5 -42.210938 17.882812 -41.09375 17.71875 -39.4375 C 17.550781 -37.8125 16.988281 -36.6875 16.03125 -36.0625 C 15.070312 -35.4375 13.910156 -35.125 12.546875 -35.125 Z M 25.203125 -35.125 C 23.867188 -35.125 22.734375 -35.4375 21.796875 -36.0625 C 20.867188 -36.6875 20.488281 -37.8125 20.65625 -39.4375 C 20.78125 -41.09375 21.335938 -42.210938 22.328125 -42.796875 C 23.328125 -43.378906 24.515625 -43.671875 25.890625 -43.671875 C 27.222656 -43.671875 28.347656 -43.378906 29.265625 -42.796875 C 30.179688 -42.210938 30.578125 -41.09375 30.453125 -39.4375 C 30.285156 -37.8125 29.710938 -36.6875 28.734375 -36.0625 C 27.753906 -35.4375 26.578125 -35.125 25.203125 -35.125 Z M 6.609375 0 C 4.492188 0 2.894531 -0.867188 1.8125 -2.609375 C 0.726562 -4.359375 0.1875 -6.628906 0.1875 -9.421875 C 0.1875 -11.171875 0.40625 -13.03125 0.84375 -15 C 1.28125 -16.976562 1.925781 -18.921875 2.78125 -20.828125 C 3.632812 -22.742188 4.703125 -24.484375 5.984375 -26.046875 C 7.273438 -27.609375 8.773438 -28.851562 10.484375 -29.78125 C 12.191406 -30.71875 14.125 -31.1875 16.28125 -31.1875 C 17.53125 -31.1875 18.5 -31.070312 19.1875 -30.84375 C 19.875 -30.625 20.394531 -30.347656 20.75 -30.015625 C 21.101562 -29.679688 21.40625 -29.398438 21.65625 -29.171875 C 21.90625 -28.941406 22.234375 -28.828125 22.640625 -28.828125 C 23.347656 -28.828125 23.921875 -29.023438 24.359375 -29.421875 C 24.796875 -29.816406 25.285156 -30.207031 25.828125 -30.59375 C 26.367188 -30.988281 27.117188 -31.1875 28.078125 -31.1875 C 28.910156 -31.1875 29.484375 -30.976562 29.796875 -30.5625 C 30.109375 -30.15625 30.265625 -29.597656 30.265625 -28.890625 C 30.265625 -27.722656 29.941406 -26.566406 29.296875 -25.421875 C 28.648438 -24.273438 27.972656 -22.789062 27.265625 -20.96875 C 26.222656 -18.675781 25.835938 -16.925781 26.109375 -15.71875 C 26.378906 -14.507812 27.203125 -13.90625 28.578125 -13.90625 C 29.660156 -13.90625 30.59375 -14.1875 31.375 -14.75 C 32.164062 -15.3125 32.875 -16.09375 33.5 -17.09375 C 33.832031 -17.59375 34.257812 -17.769531 34.78125 -17.625 C 35.300781 -17.476562 35.738281 -17.195312 36.09375 -16.78125 C 36.445312 -16.363281 36.519531 -15.945312 36.3125 -15.53125 C 35.5625 -14.082031 34.757812 -12.472656 33.90625 -10.703125 C 33.050781 -8.929688 32.101562 -7.234375 31.0625 -5.609375 C 30.03125 -3.992188 28.847656 -2.65625 27.515625 -1.59375 C 26.179688 -0.53125 24.640625 0 22.890625 0 C 20.734375 0 19.207031 -0.867188 18.3125 -2.609375 C 17.414062 -4.359375 17.15625 -6.523438 17.53125 -9.109375 L 17.28125 -9.109375 C 16.03125 -6.566406 14.488281 -4.410156 12.65625 -2.640625 C 10.832031 -0.878906 8.816406 0 6.609375 0 Z M 12.859375 -12.921875 C 13.929688 -12.921875 14.875 -13.226562 15.6875 -13.84375 C 16.5 -14.46875 17.132812 -15.226562 17.59375 -16.125 C 18.050781 -17.019531 18.28125 -17.90625 18.28125 -18.78125 C 18.28125 -19.820312 17.988281 -20.632812 17.40625 -21.21875 C 16.820312 -21.800781 16.03125 -22.09375 15.03125 -22.09375 C 13.945312 -22.09375 13.007812 -21.800781 12.21875 -21.21875 C 11.4375 -20.632812 10.828125 -19.894531 10.390625 -19 C 9.953125 -18.101562 9.734375 -17.195312 9.734375 -16.28125 C 9.734375 -15.238281 10.015625 -14.414062 10.578125 -13.8125 C 11.140625 -13.21875 11.898438 -12.921875 12.859375 -12.921875 Z M 12.859375 -12.921875 "/></g></g></g><g fill="#ffffff" fill-opacity="1"><g transform="translate(204.118136, 49.327844)"><g><path d="M 26.078125 -17.09375 C 26.410156 -17.59375 26.847656 -17.769531 27.390625 -17.625 C 27.929688 -17.476562 28.378906 -17.195312 28.734375 -16.78125 C 29.085938 -16.363281 29.140625 -15.945312 28.890625 -15.53125 C 28.472656 -14.863281 27.972656 -13.894531 27.390625 -12.625 C 26.804688 -11.363281 26.109375 -10.015625 25.296875 -8.578125 C 24.484375 -7.140625 23.535156 -5.765625 22.453125 -4.453125 C 21.378906 -3.148438 20.164062 -2.082031 18.8125 -1.25 C 17.457031 -0.414062 15.925781 0 14.21875 0 C 12.519531 0 11.171875 -0.320312 10.171875 -0.96875 C 9.171875 -1.613281 8.453125 -2.441406 8.015625 -3.453125 C 7.578125 -4.472656 7.359375 -5.503906 7.359375 -6.546875 C 7.359375 -8.003906 7.578125 -9.441406 8.015625 -10.859375 C 8.453125 -12.273438 8.960938 -13.625 9.546875 -14.90625 C 10.128906 -16.195312 10.640625 -17.382812 11.078125 -18.46875 C 11.515625 -19.550781 11.734375 -20.46875 11.734375 -21.21875 C 11.734375 -21.550781 11.492188 -22.035156 11.015625 -22.671875 C 10.535156 -23.316406 9.671875 -23.867188 8.421875 -24.328125 C 8.046875 -23.492188 7.597656 -22.523438 7.078125 -21.421875 C 6.554688 -20.328125 6.035156 -19.25 5.515625 -18.1875 C 4.992188 -17.125 4.570312 -16.238281 4.25 -15.53125 C 4 -14.988281 3.59375 -14.789062 3.03125 -14.9375 C 2.46875 -15.082031 2 -15.382812 1.625 -15.84375 C 1.25 -16.300781 1.1875 -16.71875 1.4375 -17.09375 C 2.019531 -17.925781 2.664062 -19.140625 3.375 -20.734375 C 4.082031 -22.335938 4.703125 -23.847656 5.234375 -25.265625 C 4.617188 -25.472656 4.125 -25.828125 3.75 -26.328125 C 3.375 -26.828125 3.1875 -27.640625 3.1875 -28.765625 C 3.1875 -29.640625 3.410156 -30.5 3.859375 -31.34375 C 4.316406 -32.195312 4.960938 -32.914062 5.796875 -33.5 C 6.628906 -34.082031 7.609375 -34.375 8.734375 -34.375 C 10.691406 -34.375 12.570312 -34 14.375 -33.25 C 16.1875 -32.5 17.675781 -31.550781 18.84375 -30.40625 C 20.007812 -29.269531 20.59375 -28.140625 20.59375 -27.015625 C 20.59375 -25.847656 20.375 -24.742188 19.9375 -23.703125 C 19.5 -22.671875 19.050781 -21.613281 18.59375 -20.53125 C 18.132812 -19.445312 17.90625 -18.257812 17.90625 -16.96875 C 17.90625 -16.09375 18.195312 -15.363281 18.78125 -14.78125 C 19.363281 -14.195312 20.363281 -13.90625 21.78125 -13.90625 C 22.726562 -13.90625 23.523438 -14.207031 24.171875 -14.8125 C 24.816406 -15.414062 25.453125 -16.175781 26.078125 -17.09375 Z M 26.078125 -17.09375 "/></g></g></g><g fill="#ffffff" fill-opacity="1"><g transform="translate(228.761235, 49.327844)"><g><path d="M 32.9375 -17.09375 C 33.1875 -17.46875 33.582031 -17.601562 34.125 -17.5 C 34.664062 -17.394531 35.132812 -17.164062 35.53125 -16.8125 C 35.925781 -16.457031 36 -16.03125 35.75 -15.53125 C 34.832031 -13.625 33.945312 -11.753906 33.09375 -9.921875 C 32.238281 -8.085938 31.332031 -6.421875 30.375 -4.921875 C 29.425781 -3.429688 28.367188 -2.238281 27.203125 -1.34375 C 26.035156 -0.445312 24.703125 0 23.203125 0 C 22.296875 0 21.570312 -0.457031 21.03125 -1.375 C 19.695312 2.90625 18.269531 6.335938 16.75 8.921875 C 15.226562 11.503906 13.53125 13.375 11.65625 14.53125 C 9.789062 15.695312 7.671875 16.28125 5.296875 16.28125 C 2.015625 16.28125 -0.523438 15.414062 -2.328125 13.6875 C -4.140625 11.96875 -5.046875 9.609375 -5.046875 6.609375 C -5.046875 5.035156 -4.816406 3.675781 -4.359375 2.53125 C -3.910156 1.382812 -3.394531 0.476562 -2.8125 -0.1875 C -2.226562 -0.851562 -1.707031 -1.28125 -1.25 -1.46875 C -0.789062 -1.65625 -0.539062 -1.582031 -0.5 -1.25 C -0.332031 0.289062 0.363281 1.539062 1.59375 2.5 C 2.820312 3.457031 4.472656 3.957031 6.546875 4 C 8.003906 4 9.378906 3.644531 10.671875 2.9375 C 11.960938 2.226562 13.113281 1.300781 14.125 0.15625 C 15.144531 -0.988281 15.945312 -2.242188 16.53125 -3.609375 C 17.113281 -4.984375 17.40625 -6.359375 17.40625 -7.734375 C 17.40625 -8.273438 17.195312 -8.535156 16.78125 -8.515625 C 16.363281 -8.492188 16.007812 -8.171875 15.71875 -7.546875 C 14.882812 -5.390625 13.664062 -3.6875 12.0625 -2.4375 C 10.46875 -1.1875 8.878906 -0.5625 7.296875 -0.5625 C 5.140625 -0.5625 3.414062 -1.359375 2.125 -2.953125 C 0.832031 -4.554688 0.1875 -6.523438 0.1875 -8.859375 C 0.1875 -11.191406 0.519531 -13.644531 1.1875 -16.21875 C 1.851562 -18.800781 2.859375 -21.222656 4.203125 -23.484375 C 5.554688 -25.753906 7.242188 -27.601562 9.265625 -29.03125 C 11.285156 -30.46875 13.625 -31.1875 16.28125 -31.1875 C 17.53125 -31.1875 18.5 -31.070312 19.1875 -30.84375 C 19.875 -30.625 20.394531 -30.347656 20.75 -30.015625 C 21.101562 -29.679688 21.40625 -29.398438 21.65625 -29.171875 C 21.90625 -28.941406 22.234375 -28.828125 22.640625 -28.828125 C 23.347656 -28.828125 23.921875 -29.023438 24.359375 -29.421875 C 24.796875 -29.816406 25.285156 -30.207031 25.828125 -30.59375 C 26.367188 -30.988281 27.117188 -31.1875 28.078125 -31.1875 C 28.910156 -31.1875 29.484375 -30.976562 29.796875 -30.5625 C 30.109375 -30.15625 30.265625 -29.597656 30.265625 -28.890625 C 30.265625 -28.140625 30.023438 -27.253906 29.546875 -26.234375 C 29.066406 -25.210938 28.441406 -23.898438 27.671875 -22.296875 C 26.898438 -20.703125 26.078125 -18.632812 25.203125 -16.09375 C 24.785156 -14.425781 24.785156 -13.269531 25.203125 -12.625 C 25.617188 -11.988281 26.179688 -11.671875 26.890625 -11.671875 C 27.847656 -11.671875 28.863281 -12.25 29.9375 -13.40625 C 31.019531 -14.570312 32.019531 -15.800781 32.9375 -17.09375 Z M 12.984375 -12.921875 C 14.015625 -12.921875 14.925781 -13.226562 15.71875 -13.84375 C 16.507812 -14.46875 17.132812 -15.226562 17.59375 -16.125 C 18.050781 -17.019531 18.28125 -17.90625 18.28125 -18.78125 C 18.28125 -19.695312 18.007812 -20.476562 17.46875 -21.125 C 16.925781 -21.769531 16.050781 -22.09375 14.84375 -22.09375 C 13.851562 -22.09375 12.972656 -21.800781 12.203125 -21.21875 C 11.429688 -20.632812 10.828125 -19.894531 10.390625 -19 C 9.953125 -18.101562 9.734375 -17.195312 9.734375 -16.28125 C 9.734375 -15.363281 9.984375 -14.570312 10.484375 -13.90625 C 10.984375 -13.25 11.816406 -12.921875 12.984375 -12.921875 Z M 12.984375 -12.921875 "/></g></g></g></svg>