<svg xmlns="http://www.w3.org/2000/svg" xmlns:xlink="http://www.w3.org/1999/xlink" zoomAndPan="magnify" viewBox="0 0 375 374.999991" preserveAspectRatio="xMidYMid meet" version="1.0"><path fill="#ac4c79" d="M 374.984375 187.503906 C 374.984375 291.058594 291.035156 375.003906 187.484375 375.003906 C 83.929688 375.003906 -0.0195312 291.058594 -0.0195312 187.503906 C -0.0195312 83.949219 83.929688 0.00390625 187.484375 0.00390625 C 291.035156 0.00390625 374.984375 83.949219 374.984375 187.503906 Z M 374.984375 187.503906 " fill-opacity="1" fill-rule="nonzero"/><path fill="#ffe5e7" d="M 187.492188 71.390625 C 124.246094 71.390625 72.964844 122.664062 72.964844 185.917969 C 72.964844 232.8125 101.164062 273.101562 141.519531 290.808594 C 141.199219 282.804688 141.464844 273.207031 143.503906 264.515625 C 145.714844 255.207031 158.242188 202.097656 158.242188 202.097656 C 158.242188 202.097656 154.582031 194.796875 154.582031 183.988281 C 154.582031 167.03125 164.433594 154.351562 176.683594 154.351562 C 187.085938 154.351562 192.121094 162.167969 192.121094 171.535156 C 192.121094 182.003906 185.4375 197.667969 182.011719 212.171875 C 179.140625 224.320312 188.105469 234.226562 200.074219 234.226562 C 221.777344 234.226562 236.386719 206.371094 236.386719 173.34375 C 236.386719 148.25 219.488281 129.46875 188.742188 129.46875 C 154.003906 129.46875 132.363281 155.367188 132.363281 184.296875 C 132.363281 194.28125 135.308594 201.320312 139.914062 206.765625 C 142.039062 209.273438 142.335938 210.273438 141.550781 213.144531 C 141.015625 215.265625 139.757812 220.324219 139.222656 222.332031 C 138.457031 225.246094 136.117188 226.277344 133.492188 225.203125 C 117.492188 218.679688 110.039062 201.152344 110.039062 181.460938 C 110.039062 148.933594 137.464844 109.914062 191.890625 109.914062 C 235.605469 109.914062 264.398438 141.554688 264.398438 175.523438 C 264.398438 220.445312 239.402344 254.003906 202.589844 254.003906 C 190.222656 254.003906 178.589844 247.320312 174.621094 239.738281 C 174.621094 239.738281 167.964844 266.121094 166.570312 271.21875 C 164.132812 280.035156 159.382812 288.871094 155.035156 295.75 C 165.324219 298.78125 176.210938 300.441406 187.488281 300.441406 C 250.730469 300.441406 302.003906 249.175781 302.003906 185.921875 C 302.003906 122.664062 250.730469 71.390625 187.492188 71.390625 Z M 187.492188 71.390625 " fill-opacity="1" fill-rule="nonzero"/></svg>