<svg xmlns="http://www.w3.org/2000/svg" xmlns:xlink="http://www.w3.org/1999/xlink" zoomAndPan="magnify" viewBox="0 0 375 374.999991" preserveAspectRatio="xMidYMid meet" version="1.0"><defs><clipPath id="d1aee3506e"><path d="M 43 15 L 344 15 L 344 360 L 43 360 Z M 43 15 " clip-rule="nonzero"/></clipPath><clipPath id="850a2e28c4"><path d="M 193.097656 0.222656 L 254.734375 0 C 253.617188 42.582031 337.128906 122.621094 343.828125 131.761719 C 309.441406 135.996094 277.285156 138.671875 254.734375 119.945312 L 254.503906 248.367188 C 254.0625 283.144531 239.105469 309.007812 221.011719 326.171875 C 219.449219 327.734375 217.890625 329.296875 216.101562 330.628906 C 192.875 350.25 170.101562 359.390625 138.835938 359.167969 C 108.019531 358.726562 84.796875 347.128906 65.144531 330.1875 C 50.40625 317.480469 38.574219 300.980469 31.871094 278.238281 C 17.359375 228.300781 36.117188 179.695312 77.652344 151.382812 C 78.324219 150.710938 79.210938 150.042969 80.109375 149.597656 C 99.085938 136.445312 128.566406 128.640625 156.03125 133.097656 L 156.03125 195.972656 C 137.046875 191.066406 120.078125 195.304688 107.574219 205.777344 C 107.351562 205.777344 107.351562 206.007812 107.125 206.226562 C 95.070312 216.484375 88.144531 231.644531 89.039062 248.808594 C 91.269531 279.578125 116.730469 298.75 144.421875 297.414062 C 144.421875 297.414062 144.640625 297.414062 144.640625 297.414062 C 171.4375 294.734375 193.546875 272.890625 192.875 243.457031 Z M 193.097656 0.222656 " clip-rule="evenodd"/></clipPath></defs><path fill="#ac4c79" d="M 206.929688 15.828125 L 268.566406 15.605469 C 267.449219 58.191406 350.960938 138.230469 357.660156 147.371094 C 323.273438 151.605469 291.117188 154.28125 268.566406 135.550781 L 268.335938 263.972656 C 267.894531 298.753906 252.933594 324.613281 234.839844 341.777344 C 233.28125 343.34375 231.71875 344.902344 229.929688 346.238281 C 206.707031 365.859375 183.929688 375 152.667969 374.777344 C 121.851562 374.335938 98.625 362.738281 78.976562 345.792969 C 64.242188 333.089844 52.402344 316.589844 45.703125 293.84375 C 31.1875 243.910156 49.945312 195.304688 91.480469 166.992188 C 92.152344 166.320312 93.042969 165.648438 93.9375 165.207031 C 112.917969 152.050781 142.398438 144.25 169.863281 148.707031 L 169.863281 211.582031 C 150.878906 206.675781 133.910156 210.910156 121.40625 221.386719 C 121.183594 221.386719 121.183594 221.613281 120.957031 221.835938 C 108.902344 232.089844 101.976562 247.253906 102.871094 264.417969 C 105.101562 295.1875 130.558594 314.359375 158.25 313.023438 C 158.25 313.023438 158.472656 313.023438 158.472656 313.023438 C 185.269531 310.34375 207.378906 288.5 206.707031 259.066406 Z M 206.929688 15.828125 " fill-opacity="1" fill-rule="evenodd"/><path fill="#ffc7df" d="M 193.097656 0.222656 L 254.734375 0 C 253.617188 42.582031 337.128906 122.621094 343.828125 131.761719 C 309.445312 136 277.285156 138.675781 254.734375 119.945312 L 254.507812 248.367188 C 254.0625 283.144531 239.101562 309.007812 221.011719 326.171875 C 219.449219 327.734375 217.886719 329.296875 216.101562 330.628906 C 192.875 350.253906 170.097656 359.394531 138.835938 359.171875 C 108.019531 358.726562 84.792969 347.132812 65.144531 330.1875 C 50.410156 317.480469 38.570312 300.980469 31.871094 278.238281 C 17.359375 228.300781 36.117188 179.695312 77.648438 151.382812 C 78.324219 150.714844 79.210938 150.042969 80.105469 149.597656 C 99.085938 136.445312 128.566406 128.640625 156.03125 133.101562 L 156.03125 195.972656 C 137.050781 191.066406 120.078125 195.304688 107.574219 205.78125 C 107.351562 205.78125 107.351562 206.007812 107.125 206.226562 C 95.070312 216.484375 88.144531 231.644531 89.039062 248.8125 C 91.273438 279.578125 116.730469 298.75 144.417969 297.414062 C 144.417969 297.414062 144.640625 297.414062 144.640625 297.414062 C 171.4375 294.738281 193.546875 272.890625 192.875 243.460938 Z M 193.097656 0.222656 " fill-opacity="1" fill-rule="evenodd"/><g clip-path="url(#d1aee3506e)"><g clip-path="url(#850a2e28c4)"><path fill="#ffffff" d="M 209.25 15.835938 L 270.886719 15.613281 C 269.773438 58.199219 353.285156 138.234375 359.984375 147.378906 C 325.597656 151.613281 293.441406 154.289062 270.886719 135.558594 L 270.660156 263.980469 C 270.214844 298.757812 255.257812 324.621094 237.164062 341.785156 C 235.605469 343.347656 234.042969 344.910156 232.253906 346.246094 C 209.03125 365.867188 186.253906 375.007812 154.992188 374.785156 C 124.175781 374.339844 100.949219 362.746094 81.300781 345.800781 C 66.5625 333.097656 54.726562 316.59375 48.027344 293.851562 C 33.511719 243.917969 52.269531 195.3125 93.804688 167 C 94.476562 166.328125 95.367188 165.65625 96.261719 165.214844 C 115.242188 152.058594 144.71875 144.253906 172.183594 148.714844 L 172.183594 211.589844 C 153.203125 206.679688 136.234375 210.917969 123.726562 221.394531 C 123.507812 221.394531 123.507812 221.621094 123.277344 221.84375 C 111.226562 232.097656 104.296875 247.261719 105.191406 264.425781 C 107.425781 295.195312 132.882812 314.367188 160.574219 313.03125 C 160.574219 313.03125 160.796875 313.03125 160.796875 313.03125 C 187.59375 310.351562 209.699219 288.507812 209.03125 259.074219 Z M 209.25 15.835938 " fill-opacity="1" fill-rule="evenodd"/></g></g></svg>